<svg xmlns="http://www.w3.org/2000/svg" width="15.833" height="15" viewBox="0 0 15.833 15" fill="none">
  <path d="M 1.667 15 C 1.208 15 0.816 14.837 0.49 14.51 C 0.163 14.184 0 13.792 0 13.333 L 0 1.667 C 0 1.208 0.163 0.816 0.49 0.49 C 0.816 0.163 1.208 0 1.667 0 L 13.333 0 C 13.792 0 14.184 0.163 14.51 0.49 C 14.837 0.816 15 1.208 15 1.667 L 8.333 1.667 C 7.347 1.667 6.545 1.976 5.927 2.594 C 5.309 3.212 5 4.014 5 5 L 5 10 C 5 10.986 5.309 11.788 5.927 12.406 C 6.545 13.024 7.347 13.333 8.333 13.333 L 15 13.333 C 15 13.792 14.837 14.184 14.51 14.51 C 14.184 14.837 13.792 15 13.333 15 L 1.667 15 Z M 8.333 11.667 C 7.875 11.667 7.483 11.503 7.156 11.177 C 6.83 10.851 6.667 10.458 6.667 10 L 6.667 5 C 6.667 4.542 6.83 4.149 7.156 3.823 C 7.483 3.497 7.875 3.333 8.333 3.333 L 14.167 3.333 C 14.625 3.333 15.017 3.497 15.344 3.823 C 15.67 4.149 15.833 4.542 15.833 5 L 15.833 10 C 15.833 10.458 15.67 10.851 15.344 11.177 C 15.017 11.503 14.625 11.667 14.167 11.667 L 8.333 11.667 Z M 10.833 8.75 C 11.194 8.75 11.493 8.632 11.729 8.396 C 11.965 8.16 12.083 7.861 12.083 7.5 C 12.083 7.139 11.965 6.84 11.729 6.604 C 11.493 6.368 11.194 6.25 10.833 6.25 C 10.472 6.25 10.174 6.368 9.938 6.604 C 9.701 6.84 9.583 7.139 9.583 7.5 C 9.583 7.861 9.701 8.16 9.938 8.396 C 10.174 8.632 10.472 8.75 10.833 8.75 Z" fill="currentColor" fill-rule="nonzero"/>
</svg>
