<svg xmlns="http://www.w3.org/2000/svg" width="16" height="16" viewBox="0 0 16 16" fill="none">
  <path d="M 7.25 12 L 8.75 12 L 8.75 8.75 L 12 8.75 L 12 7.25 L 8.75 7.25 L 8.75 4 L 7.25 4 L 7.25 7.25 L 4 7.25 L 4 8.75 L 7.25 8.75 L 7.25 12 Z M 8.006 16 C 6.905 16 5.868 15.792 4.896 15.375 C 3.924 14.958 3.073 14.385 2.344 13.656 C 1.615 12.927 1.042 12.077 0.625 11.105 C 0.208 10.133 0 9.095 0 7.99 C 0 6.886 0.208 5.851 0.625 4.885 C 1.042 3.92 1.615 3.073 2.344 2.344 C 3.073 1.615 3.923 1.042 4.895 0.625 C 5.867 0.208 6.905 0 8.01 0 C 9.114 0 10.149 0.208 11.115 0.625 C 12.08 1.042 12.927 1.615 13.656 2.344 C 14.385 3.073 14.958 3.922 15.375 4.89 C 15.792 5.858 16 6.893 16 7.994 C 16 9.095 15.792 10.132 15.375 11.104 C 14.958 12.076 14.385 12.927 13.656 13.656 C 12.927 14.385 12.078 14.958 11.11 15.375 C 10.142 15.792 9.107 16 8.006 16 Z M 8 14.5 C 9.806 14.5 11.34 13.868 12.604 12.604 C 13.868 11.34 14.5 9.806 14.5 8 C 14.5 6.194 13.868 4.66 12.604 3.396 C 11.34 2.132 9.806 1.5 8 1.5 C 6.194 1.5 4.66 2.132 3.396 3.396 C 2.132 4.66 1.5 6.194 1.5 8 C 1.5 9.806 2.132 11.34 3.396 12.604 C 4.66 13.868 6.194 14.5 8 14.5 Z" fill="currentColor" fill-rule="nonzero"/>
</svg>
