<svg xmlns="http://www.w3.org/2000/svg" width="9.350" height="18" viewBox="0 0 9.350 18" fill="none">
  <path d="M 3.7 18 L 3.7 15.85 C 2.817 15.65 2.054 15.267 1.413 14.7 C 0.771 14.133 0.3 13.333 0 12.3 L 1.85 11.55 C 2.1 12.35 2.471 12.958 2.963 13.375 C 3.454 13.792 4.1 14 4.9 14 C 5.583 14 6.163 13.846 6.638 13.538 C 7.113 13.229 7.35 12.75 7.35 12.1 C 7.35 11.517 7.167 11.054 6.8 10.713 C 6.433 10.371 5.583 9.983 4.25 9.55 C 2.817 9.1 1.833 8.563 1.3 7.938 C 0.767 7.313 0.5 6.55 0.5 5.65 C 0.5 4.567 0.85 3.725 1.55 3.125 C 2.25 2.525 2.967 2.183 3.7 2.1 L 3.7 0 L 5.7 0 L 5.7 2.1 C 6.533 2.233 7.221 2.538 7.763 3.013 C 8.304 3.487 8.7 4.067 8.95 4.75 L 7.1 5.55 C 6.9 5.017 6.617 4.617 6.25 4.35 C 5.883 4.083 5.383 3.95 4.75 3.95 C 4.017 3.95 3.458 4.113 3.075 4.438 C 2.692 4.762 2.5 5.167 2.5 5.65 C 2.5 6.2 2.75 6.633 3.25 6.95 C 3.75 7.267 4.617 7.6 5.85 7.95 C 7 8.283 7.871 8.813 8.463 9.538 C 9.054 10.263 9.35 11.1 9.35 12.05 C 9.35 13.233 9 14.133 8.3 14.75 C 7.6 15.367 6.733 15.75 5.7 15.9 L 5.7 18 L 3.7 18 Z" fill="currentColor" fill-rule="nonzero"/>
</svg>
