<svg xmlns="http://www.w3.org/2000/svg" width="15" height="15.021" viewBox="0 0 15 15.021" fill="none">
  <path d="M 13.833 15.021 L 8.542 9.729 L 9.708 8.563 L 15 13.854 L 13.833 15.021 Z M 2.458 14.438 C 1.625 13.604 1.007 12.667 0.604 11.625 C 0.201 10.583 0 9.521 0 8.438 C 0 7.354 0.201 6.299 0.604 5.271 C 1.007 4.243 1.625 3.313 2.458 2.479 C 3.292 1.646 4.226 1.024 5.26 0.615 C 6.295 0.205 7.354 0 8.438 0 C 9.521 0 10.58 0.205 11.615 0.615 C 12.649 1.024 13.583 1.646 14.417 2.479 L 2.458 14.438 Z M 2.625 11.896 L 3.75 10.771 C 3.528 10.479 3.316 10.181 3.115 9.875 C 2.913 9.569 2.729 9.264 2.563 8.958 C 2.396 8.653 2.25 8.347 2.125 8.042 C 2 7.736 1.889 7.437 1.792 7.146 C 1.639 7.965 1.628 8.785 1.76 9.604 C 1.892 10.424 2.181 11.188 2.625 11.896 Z M 4.958 9.604 L 9.583 4.938 C 8.986 4.479 8.385 4.108 7.781 3.823 C 7.177 3.538 6.611 3.344 6.083 3.24 C 5.556 3.135 5.08 3.118 4.656 3.188 C 4.233 3.257 3.903 3.41 3.667 3.646 C 3.431 3.896 3.278 4.233 3.208 4.656 C 3.139 5.08 3.156 5.559 3.26 6.094 C 3.365 6.628 3.559 7.194 3.844 7.792 C 4.128 8.389 4.5 8.993 4.958 9.604 Z M 10.75 3.771 L 11.917 2.646 C 11.181 2.201 10.403 1.91 9.583 1.771 C 8.764 1.632 7.944 1.646 7.125 1.812 C 7.431 1.91 7.736 2.021 8.042 2.146 C 8.347 2.271 8.653 2.413 8.958 2.573 C 9.264 2.733 9.566 2.913 9.865 3.115 C 10.163 3.316 10.458 3.535 10.75 3.771 Z" fill="currentColor" fill-rule="nonzero"/>
</svg>
