<svg xmlns="http://www.w3.org/2000/svg" width="21.726" height="8.640" viewBox="0 0 21.726 8.640" fill="none">
  <path d="M 2.338 8.275 L 0.363 6.275 C 0.13 6.042 0.009 5.763 0 5.438 C -0.008 5.113 0.105 4.833 0.338 4.6 C 1.655 3.183 3.213 2.063 5.013 1.238 C 6.813 0.413 8.763 0 10.863 0 C 12.963 0 14.913 0.413 16.713 1.238 C 18.513 2.063 20.071 3.183 21.388 4.6 C 21.621 4.833 21.734 5.113 21.725 5.438 C 21.717 5.763 21.596 6.042 21.363 6.275 L 19.388 8.275 C 19.205 8.458 18.971 8.575 18.688 8.625 C 18.405 8.675 18.121 8.6 17.838 8.4 L 14.963 6.35 C 14.813 6.233 14.692 6.088 14.6 5.913 C 14.509 5.738 14.463 5.561 14.463 5.384 L 14.463 2.35 C 13.88 2.167 13.29 2.029 12.694 1.938 C 12.099 1.846 11.488 1.8 10.863 1.8 C 10.238 1.8 9.627 1.846 9.031 1.938 C 8.436 2.029 7.846 2.167 7.263 2.35 L 7.263 5.384 C 7.263 5.561 7.217 5.738 7.125 5.913 C 7.034 6.088 6.913 6.233 6.763 6.35 L 3.888 8.4 C 3.605 8.6 3.317 8.671 3.025 8.613 C 2.734 8.554 2.505 8.442 2.338 8.275 Z M 5.463 3 C 4.846 3.3 4.25 3.658 3.675 4.075 C 3.1 4.492 2.555 4.942 2.038 5.425 L 3.263 6.65 L 5.463 5.075 L 5.463 3 Z M 16.263 3 L 16.263 5.075 L 18.463 6.65 L 19.688 5.425 C 19.171 4.925 18.63 4.471 18.063 4.063 C 17.496 3.654 16.896 3.3 16.263 3 Z" fill="currentColor" fill-rule="nonzero"/>
</svg>
