<svg xmlns="http://www.w3.org/2000/svg" width="26.667" height="26.667" viewBox="0 0 26.667 26.667" fill="none">
  <path d="M 11.467 19.467 L 20.867 10.067 L 19 8.2 L 11.467 15.733 L 7.667 11.933 L 5.8 13.8 L 11.467 19.467 Z M 13.333 26.667 C 11.489 26.667 9.756 26.317 8.133 25.617 C 6.511 24.917 5.1 23.967 3.9 22.767 C 2.7 21.567 1.75 20.156 1.05 18.533 C 0.35 16.911 0 15.178 0 13.333 C 0 11.489 0.35 9.756 1.05 8.133 C 1.75 6.511 2.7 5.1 3.9 3.9 C 5.1 2.7 6.511 1.75 8.133 1.05 C 9.756 0.35 11.489 0 13.333 0 C 15.178 0 16.911 0.35 18.533 1.05 C 20.156 1.75 21.567 2.7 22.767 3.9 C 23.967 5.1 24.917 6.511 25.617 8.133 C 26.317 9.756 26.667 11.489 26.667 13.333 C 26.667 15.178 26.317 16.911 25.617 18.533 C 24.917 20.156 23.967 21.567 22.767 22.767 C 21.567 23.967 20.156 24.917 18.533 25.617 C 16.911 26.317 15.178 26.667 13.333 26.667 Z" fill="currentColor" fill-rule="nonzero"/>
</svg>
