<svg xmlns="http://www.w3.org/2000/svg" width="16" height="12" viewBox="0 0 16 12" fill="none">
  <path d="M 16 1.5 L 16 10.5 C 16 10.903 15.853 11.253 15.559 11.552 C 15.266 11.851 14.913 12 14.5 12 L 1.5 12 C 1.097 12 0.747 11.851 0.448 11.552 C 0.149 11.253 0 10.903 0 10.5 L 0 1.5 C 0 1.097 0.149 0.747 0.448 0.448 C 0.747 0.149 1.097 0 1.5 0 L 14.5 0 C 14.913 0 15.266 0.149 15.559 0.448 C 15.853 0.747 16 1.097 16 1.5 Z M 1.5 3 L 14.5 3 L 14.5 1.5 L 1.5 1.5 L 1.5 3 Z M 1.5 6 L 1.5 10.5 L 14.5 10.5 L 14.5 6 L 1.5 6 Z" fill="currentColor" fill-rule="nonzero"/>
</svg>
