<svg xmlns="http://www.w3.org/2000/svg" width="10" height="14" viewBox="0 0 10 14" fill="none">
  <path d="M 2.5 14 L 2.5 12.5 L 0 12.5 L 0 11 L 1.5 11 L 1.5 3 L 0 3 L 0 1.5 L 2.5 1.5 L 2.5 0 L 4 0 L 4 1.5 L 5.5 1.5 L 5.5 0 L 7 0 L 7 1.708 C 7.625 1.972 8.115 2.357 8.469 2.864 C 8.823 3.37 9 3.957 9 4.625 C 9 5.028 8.941 5.389 8.823 5.708 C 8.705 6.028 8.528 6.326 8.292 6.604 C 8.792 6.84 9.201 7.215 9.521 7.729 C 9.84 8.243 10 8.789 10 9.367 C 10 10.233 9.719 10.962 9.156 11.552 C 8.594 12.142 7.875 12.458 7 12.5 L 7 14 L 5.5 14 L 5.5 12.5 L 4 12.5 L 4 14 L 2.5 14 Z M 3 6.25 L 5.875 6.25 C 6.333 6.25 6.719 6.091 7.031 5.773 C 7.344 5.456 7.5 5.074 7.5 4.628 C 7.5 4.181 7.341 3.799 7.023 3.479 C 6.704 3.16 6.322 3 5.875 3 L 3 3 L 3 6.25 Z M 3 11 L 6.875 11 C 7.333 11 7.719 10.841 8.031 10.523 C 8.344 10.206 8.5 9.824 8.5 9.378 C 8.5 8.931 8.341 8.549 8.023 8.229 C 7.704 7.91 7.322 7.75 6.875 7.75 L 3 7.75 L 3 11 Z" fill="currentColor" fill-rule="nonzero"/>
</svg>
