<svg xmlns="http://www.w3.org/2000/svg" width="26.667" height="30" viewBox="0 0 26.667 30" fill="none">
  <path d="M 5 30 C 4.083 30 3.299 29.674 2.646 29.021 C 1.993 28.368 1.667 27.583 1.667 26.667 L 1.667 5 L 0 5 L 0 1.667 L 8.333 1.667 L 8.333 0 L 18.333 0 L 18.333 1.667 L 26.667 1.667 L 26.667 5 L 25 5 L 25 26.667 C 25 27.583 24.674 28.368 24.021 29.021 C 23.368 29.674 22.583 30 21.667 30 L 5 30 Z M 21.667 5 L 5 5 L 5 26.667 L 21.667 26.667 L 21.667 5 Z M 8.333 23.333 L 11.667 23.333 L 11.667 8.333 L 8.333 8.333 L 8.333 23.333 Z M 15 23.333 L 18.333 23.333 L 18.333 8.333 L 15 8.333 L 15 23.333 Z" fill="currentColor" fill-rule="nonzero"/>
</svg>
