<svg xmlns="http://www.w3.org/2000/svg" width="12" height="11" viewBox="0 0 12 11" fill="none">
  <path d="M 0 11 L 0 0 L 6 0 L 6 2.444 L 12 2.444 L 12 11 L 0 11 Z M 1.2 9.778 L 2.4 9.778 L 2.4 8.556 L 1.2 8.556 L 1.2 9.778 Z M 1.2 7.333 L 2.4 7.333 L 2.4 6.111 L 1.2 6.111 L 1.2 7.333 Z M 1.2 4.889 L 2.4 4.889 L 2.4 3.667 L 1.2 3.667 L 1.2 4.889 Z M 1.2 2.444 L 2.4 2.444 L 2.4 1.222 L 1.2 1.222 L 1.2 2.444 Z M 3.6 9.778 L 4.8 9.778 L 4.8 8.556 L 3.6 8.556 L 3.6 9.778 Z M 3.6 7.333 L 4.8 7.333 L 4.8 6.111 L 3.6 6.111 L 3.6 7.333 Z M 3.6 4.889 L 4.8 4.889 L 4.8 3.667 L 3.6 3.667 L 3.6 4.889 Z M 3.6 2.444 L 4.8 2.444 L 4.8 1.222 L 3.6 1.222 L 3.6 2.444 Z M 6 9.778 L 10.8 9.778 L 10.8 3.667 L 6 3.667 L 6 4.889 L 7.2 4.889 L 7.2 6.111 L 6 6.111 L 6 7.333 L 7.2 7.333 L 7.2 8.556 L 6 8.556 L 6 9.778 Z M 8.4 6.111 L 8.4 4.889 L 9.6 4.889 L 9.6 6.111 L 8.4 6.111 Z M 8.4 8.556 L 8.4 7.333 L 9.6 7.333 L 9.6 8.556 L 8.4 8.556 Z" fill="currentColor" fill-rule="nonzero"/>
</svg>
