<svg xmlns="http://www.w3.org/2000/svg" width="12" height="9" viewBox="0 0 12 9" fill="none">
  <path d="M 0 9 L 0 7.425 C 0 7.106 0.08 6.813 0.239 6.546 C 0.398 6.279 0.609 6.075 0.873 5.934 C 1.436 5.644 2.009 5.426 2.591 5.28 C 3.173 5.135 3.764 5.063 4.364 5.063 C 4.964 5.063 5.555 5.135 6.136 5.28 C 6.718 5.426 7.291 5.644 7.855 5.934 C 8.118 6.075 8.33 6.279 8.489 6.546 C 8.648 6.813 8.727 7.106 8.727 7.425 L 8.727 9 L 0 9 Z M 9.818 9 L 9.818 7.313 C 9.818 6.9 9.707 6.504 9.484 6.124 C 9.261 5.745 8.945 5.419 8.536 5.147 C 9 5.203 9.436 5.299 9.845 5.435 C 10.255 5.571 10.636 5.738 10.991 5.934 C 11.318 6.122 11.568 6.33 11.741 6.56 C 11.914 6.79 12 7.041 12 7.313 L 12 9 L 9.818 9 Z M 4.364 4.5 C 3.764 4.5 3.25 4.28 2.823 3.839 C 2.395 3.398 2.182 2.869 2.182 2.25 C 2.182 1.631 2.395 1.102 2.823 0.661 C 3.25 0.22 3.764 0 4.364 0 C 4.964 0 5.477 0.22 5.905 0.661 C 6.332 1.102 6.545 1.631 6.545 2.25 C 6.545 2.869 6.332 3.398 5.905 3.839 C 5.477 4.28 4.964 4.5 4.364 4.5 Z M 9.818 2.25 C 9.818 2.869 9.605 3.398 9.177 3.839 C 8.75 4.28 8.236 4.5 7.636 4.5 C 7.536 4.5 7.409 4.488 7.255 4.465 C 7.1 4.441 6.973 4.416 6.873 4.388 C 7.118 4.088 7.307 3.755 7.439 3.389 C 7.57 3.023 7.636 2.644 7.636 2.25 C 7.636 1.856 7.57 1.477 7.439 1.111 C 7.307 0.745 7.118 0.413 6.873 0.113 C 7 0.066 7.127 0.035 7.255 0.021 C 7.382 0.007 7.509 0 7.636 0 C 8.236 0 8.75 0.22 9.177 0.661 C 9.605 1.102 9.818 1.631 9.818 2.25 Z M 1.091 7.875 L 7.636 7.875 L 7.636 7.425 C 7.636 7.322 7.611 7.228 7.561 7.144 C 7.511 7.059 7.445 6.994 7.364 6.947 C 6.873 6.694 6.377 6.504 5.877 6.377 C 5.377 6.251 4.873 6.188 4.364 6.188 C 3.855 6.188 3.35 6.251 2.85 6.377 C 2.35 6.504 1.855 6.694 1.364 6.947 C 1.282 6.994 1.216 7.059 1.166 7.144 C 1.116 7.228 1.091 7.322 1.091 7.425 L 1.091 7.875 Z M 4.364 3.375 C 4.664 3.375 4.92 3.265 5.134 3.045 C 5.348 2.824 5.455 2.559 5.455 2.25 C 5.455 1.941 5.348 1.676 5.134 1.455 C 4.92 1.235 4.664 1.125 4.364 1.125 C 4.064 1.125 3.807 1.235 3.593 1.455 C 3.38 1.676 3.273 1.941 3.273 2.25 C 3.273 2.559 3.38 2.824 3.593 3.045 C 3.807 3.265 4.064 3.375 4.364 3.375 Z" fill="currentColor" fill-rule="nonzero"/>
</svg>
