<svg xmlns="http://www.w3.org/2000/svg" width="8.725" height="16.800" viewBox="0 0 8.725 16.800" fill="none">
  <path d="M 3.475 16.8 L 3.475 14.8 C 2.625 14.617 1.896 14.233 1.288 13.65 C 0.679 13.067 0.25 12.342 0 11.475 L 1.85 10.725 C 1.983 11.325 2.321 11.862 2.863 12.337 C 3.404 12.812 3.967 13.05 4.55 13.05 C 5.2 13.05 5.733 12.883 6.15 12.55 C 6.567 12.217 6.775 11.783 6.775 11.25 C 6.775 10.75 6.588 10.333 6.213 10 C 5.838 9.667 5.175 9.333 4.225 9 C 2.925 8.533 1.975 8.021 1.375 7.462 C 0.775 6.904 0.475 6.183 0.475 5.3 C 0.475 4.467 0.746 3.75 1.288 3.15 C 1.829 2.55 2.558 2.158 3.475 1.975 L 3.475 0 L 5.275 0 L 5.275 1.975 C 6.475 2.175 7.279 2.633 7.688 3.35 C 8.096 4.067 8.308 4.442 8.325 4.475 L 6.575 5.2 C 6.442 4.767 6.175 4.408 5.775 4.125 C 5.375 3.842 4.933 3.7 4.45 3.7 C 3.867 3.7 3.383 3.85 3 4.15 C 2.617 4.45 2.425 4.817 2.425 5.25 C 2.425 5.683 2.633 6.054 3.05 6.362 C 3.467 6.671 4.242 7.017 5.375 7.4 C 6.542 7.783 7.392 8.283 7.925 8.9 C 8.458 9.517 8.725 10.3 8.725 11.25 C 8.725 12.2 8.417 13 7.8 13.65 C 7.183 14.3 6.342 14.708 5.275 14.875 L 5.275 16.8 L 3.475 16.8 Z" fill="currentColor" fill-rule="nonzero"/>
</svg>
