<svg xmlns="http://www.w3.org/2000/svg" width="33.333" height="33.333" viewBox="0 0 33.333 33.333" fill="none">
  <path d="M 15 25 L 18.333 25 L 18.333 15 L 15 15 L 15 25 Z M 16.667 11.667 C 17.139 11.667 17.535 11.507 17.854 11.188 C 18.174 10.868 18.333 10.472 18.333 10 C 18.333 9.528 18.174 9.132 17.854 8.813 C 17.535 8.493 17.139 8.333 16.667 8.333 C 16.194 8.333 15.799 8.493 15.479 8.813 C 15.16 9.132 15 9.528 15 10 C 15 10.472 15.16 10.868 15.479 11.188 C 15.799 11.507 16.194 11.667 16.667 11.667 Z M 16.667 33.333 C 14.361 33.333 12.194 32.896 10.167 32.021 C 8.139 31.146 6.375 29.958 4.875 28.458 C 3.375 26.958 2.188 25.194 1.313 23.167 C 0.437 21.139 0 18.972 0 16.667 C 0 14.361 0.437 12.194 1.313 10.167 C 2.188 8.139 3.375 6.375 4.875 4.875 C 6.375 3.375 8.139 2.188 10.167 1.313 C 12.194 0.437 14.361 0 16.667 0 C 18.972 0 21.139 0.437 23.167 1.313 C 25.194 2.188 26.958 3.375 28.458 4.875 C 29.958 6.375 31.146 8.139 32.021 10.167 C 32.896 12.194 33.333 14.361 33.333 16.667 C 33.333 18.972 32.896 21.139 32.021 23.167 C 31.146 25.194 29.958 26.958 28.458 28.458 C 26.958 29.958 25.194 31.146 23.167 32.021 C 21.139 32.896 18.972 33.333 16.667 33.333 Z M 16.667 30 C 20.389 30 23.542 28.708 26.125 26.125 C 28.708 23.542 30 20.389 30 16.667 C 30 12.944 28.708 9.792 26.125 7.208 C 23.542 4.625 20.389 3.333 16.667 3.333 C 12.944 3.333 9.792 4.625 7.208 7.208 C 4.625 9.792 3.333 12.944 3.333 16.667 C 3.333 20.389 4.625 23.542 7.208 26.125 C 9.792 28.708 12.944 30 16.667 30 Z" fill="currentColor" fill-rule="nonzero"/>
</svg>
