<svg xmlns="http://www.w3.org/2000/svg" width="12" height="17" viewBox="0 0 12 17" fill="none">
  <path d="M 1.494 17 C 1.081 17 0.729 16.853 0.438 16.559 C 0.146 16.266 0 15.913 0 15.5 L 0 7.5 C 0 7.088 0.147 6.734 0.441 6.441 C 0.734 6.147 1.087 6 1.5 6 L 2 6 L 2 4 C 2 2.893 2.39 1.95 3.171 1.17 C 3.952 0.39 4.897 0 6.005 0 C 7.113 0 8.056 0.39 8.833 1.17 C 9.611 1.95 10 2.893 10 4 L 10 6 L 10.5 6 C 10.913 6 11.266 6.147 11.559 6.441 C 11.853 6.734 12 7.088 12 7.5 L 12 15.5 C 12 15.913 11.853 16.266 11.559 16.559 C 11.265 16.853 10.912 17 10.499 17 L 1.494 17 Z M 1.5 15.5 L 10.5 15.5 L 10.5 7.5 L 1.5 7.5 L 1.5 15.5 Z M 6.004 13 C 6.418 13 6.771 12.853 7.063 12.558 C 7.354 12.264 7.5 11.909 7.5 11.496 C 7.5 11.082 7.353 10.729 7.058 10.438 C 6.764 10.146 6.409 10 5.996 10 C 5.582 10 5.229 10.147 4.938 10.442 C 4.646 10.736 4.5 11.091 4.5 11.504 C 4.5 11.918 4.647 12.271 4.942 12.563 C 5.236 12.854 5.591 13 6.004 13 Z M 3.5 6 L 8.5 6 L 8.5 4 C 8.5 3.306 8.257 2.715 7.771 2.229 C 7.285 1.743 6.694 1.5 6 1.5 C 5.306 1.5 4.715 1.743 4.229 2.229 C 3.743 2.715 3.5 3.306 3.5 4 L 3.5 6 Z" fill="currentColor" fill-rule="nonzero"/>
</svg>
