<svg xmlns="http://www.w3.org/2000/svg" width="16" height="21" viewBox="0 0 16 21" fill="none">
  <path d="M 2 7 L 11 7 L 11 5 C 11 4.167 10.708 3.458 10.125 2.875 C 9.542 2.292 8.833 2 8 2 C 7.167 2 6.458 2.292 5.875 2.875 C 5.292 3.458 5 4.167 5 5 L 3 5 C 3 3.617 3.488 2.438 4.463 1.462 C 5.438 0.487 6.617 0 8 0 C 9.383 0 10.563 0.487 11.538 1.462 C 12.513 2.438 13 3.617 13 5 L 13 7 L 14 7 C 14.55 7 15.021 7.196 15.413 7.588 C 15.804 7.979 16 8.45 16 9 L 16 19 C 16 19.55 15.804 20.021 15.413 20.413 C 15.021 20.804 14.55 21 14 21 L 2 21 C 1.45 21 0.979 20.804 0.588 20.413 C 0.196 20.021 0 19.55 0 19 L 0 9 C 0 8.45 0.196 7.979 0.588 7.588 C 0.979 7.196 1.45 7 2 7 Z M 2 19 L 14 19 L 14 9 L 2 9 L 2 19 Z M 8 16 C 8.55 16 9.021 15.804 9.413 15.413 C 9.804 15.021 10 14.55 10 14 C 10 13.45 9.804 12.979 9.413 12.588 C 9.021 12.196 8.55 12 8 12 C 7.45 12 6.979 12.196 6.588 12.588 C 6.196 12.979 6 13.45 6 14 C 6 14.55 6.196 15.021 6.588 15.413 C 6.979 15.804 7.45 16 8 16 Z" fill="currentColor" fill-rule="nonzero"/>
</svg>
