<svg xmlns="http://www.w3.org/2000/svg" width="9" height="9" viewBox="0 0 9 9" fill="none">
  <path d="M 4.5 4.5 C 3.881 4.5 3.352 4.28 2.911 3.839 C 2.47 3.398 2.25 2.869 2.25 2.25 C 2.25 1.631 2.47 1.102 2.911 0.661 C 3.352 0.22 3.881 0 4.5 0 C 5.119 0 5.648 0.22 6.089 0.661 C 6.53 1.102 6.75 1.631 6.75 2.25 C 6.75 2.869 6.53 3.398 6.089 3.839 C 5.648 4.28 5.119 4.5 4.5 4.5 Z M 0 9 L 0 7.425 C 0 7.106 0.082 6.813 0.246 6.546 C 0.41 6.279 0.628 6.075 0.9 5.934 C 1.481 5.644 2.072 5.426 2.672 5.28 C 3.272 5.135 3.881 5.063 4.5 5.063 C 5.119 5.063 5.728 5.135 6.328 5.28 C 6.928 5.426 7.519 5.644 8.1 5.934 C 8.372 6.075 8.59 6.279 8.754 6.546 C 8.918 6.813 9 7.106 9 7.425 L 9 9 L 0 9 Z M 1.125 7.875 L 7.875 7.875 L 7.875 7.425 C 7.875 7.322 7.849 7.228 7.798 7.144 C 7.746 7.059 7.678 6.994 7.594 6.947 C 7.088 6.694 6.577 6.504 6.061 6.377 C 5.545 6.251 5.025 6.188 4.5 6.188 C 3.975 6.188 3.455 6.251 2.939 6.377 C 2.423 6.504 1.913 6.694 1.406 6.947 C 1.322 6.994 1.254 7.059 1.202 7.144 C 1.151 7.228 1.125 7.322 1.125 7.425 L 1.125 7.875 Z M 4.5 3.375 C 4.809 3.375 5.074 3.265 5.295 3.045 C 5.515 2.824 5.625 2.559 5.625 2.25 C 5.625 1.941 5.515 1.676 5.295 1.455 C 5.074 1.235 4.809 1.125 4.5 1.125 C 4.191 1.125 3.926 1.235 3.705 1.455 C 3.485 1.676 3.375 1.941 3.375 2.25 C 3.375 2.559 3.485 2.824 3.705 3.045 C 3.926 3.265 4.191 3.375 4.5 3.375 Z" fill="currentColor" fill-rule="nonzero"/>
</svg>
