<svg xmlns="http://www.w3.org/2000/svg" width="18" height="18" viewBox="0 0 18 18" fill="none">
  <path d="M 8 18 L 8 10.025 C 6.933 10.025 5.908 9.821 4.925 9.413 C 3.942 9.004 3.075 8.425 2.325 7.675 C 1.575 6.925 1 6.058 0.6 5.075 C 0.2 4.092 0 3.067 0 2 L 0 0 L 2 0 C 3.05 0 4.067 0.204 5.05 0.613 C 6.033 1.021 6.9 1.6 7.65 2.35 C 8.167 2.867 8.596 3.433 8.938 4.05 C 9.279 4.667 9.542 5.325 9.725 6.025 C 9.808 5.908 9.9 5.796 10 5.688 C 10.1 5.579 10.208 5.467 10.325 5.35 C 11.075 4.6 11.942 4.021 12.925 3.612 C 13.908 3.204 14.933 3 16 3 L 18 3 L 18 5 C 18 6.067 17.796 7.092 17.388 8.075 C 16.979 9.058 16.4 9.925 15.65 10.675 C 14.9 11.425 14.038 12 13.063 12.4 C 12.087 12.8 11.067 13 10 13 L 10 18 L 8 18 Z" fill="currentColor" fill-rule="nonzero"/>
</svg>
