<svg xmlns="http://www.w3.org/2000/svg" width="18" height="18" viewBox="0 0 18 18" fill="none">
  <path d="M 9 14 C 9.283 14 9.521 13.904 9.713 13.713 C 9.904 13.521 10 13.283 10 13 C 10 12.717 9.904 12.479 9.713 12.288 C 9.521 12.096 9.283 12 9 12 C 8.717 12 8.479 12.096 8.288 12.288 C 8.096 12.479 8 12.717 8 13 C 8 13.283 8.096 13.521 8.288 13.713 C 8.479 13.904 8.717 14 9 14 Z M 8 10 L 10 10 L 10 4 L 8 4 L 8 10 Z M 5.25 18 L 0 12.75 L 0 5.25 L 5.25 0 L 12.75 0 L 18 5.25 L 18 12.75 L 12.75 18 L 5.25 18 Z M 6.1 16 L 11.9 16 L 16 11.9 L 16 6.1 L 11.9 2 L 6.1 2 L 2 6.1 L 2 11.9 L 6.1 16 Z" fill="currentColor" fill-rule="nonzero"/>
</svg>
