<svg xmlns="http://www.w3.org/2000/svg" width="16" height="20" viewBox="0 0 16 20" fill="none">
  <path d="M 8 20 C 5.683 19.417 3.771 18.088 2.263 16.013 C 0.754 13.938 0 11.633 0 9.1 L 0 3 L 8 0 L 16 3 L 16 9.1 C 16 11.633 15.246 13.938 13.738 16.013 C 12.229 18.088 10.317 19.417 8 20 Z M 8 17.9 C 9.733 17.35 11.167 16.25 12.3 14.6 C 13.433 12.95 14 11.117 14 9.1 L 14 4.375 L 8 2.125 L 2 4.375 L 2 9.1 C 2 11.117 2.567 12.95 3.7 14.6 C 4.833 16.25 6.267 17.35 8 17.9 Z M 6 14 L 10 14 C 10.283 14 10.521 13.904 10.713 13.713 C 10.904 13.521 11 13.283 11 13 L 11 10 C 11 9.717 10.904 9.479 10.713 9.288 C 10.521 9.096 10.283 9 10 9 L 10 8 C 10 7.45 9.804 6.979 9.413 6.588 C 9.021 6.196 8.55 6 8 6 C 7.45 6 6.979 6.196 6.588 6.588 C 6.196 6.979 6 7.45 6 8 L 6 9 C 5.717 9 5.479 9.096 5.287 9.288 C 5.096 9.479 5 9.717 5 10 L 5 13 C 5 13.283 5.096 13.521 5.287 13.713 C 5.479 13.904 5.717 14 6 14 Z M 7 9 L 7 8 C 7 7.717 7.096 7.479 7.287 7.287 C 7.479 7.096 7.717 7 8 7 C 8.283 7 8.521 7.096 8.713 7.287 C 8.904 7.479 9 7.717 9 8 L 9 9 L 7 9 Z" fill="currentColor" fill-rule="nonzero"/>
</svg>
