<svg xmlns="http://www.w3.org/2000/svg" width="19.955" height="19.753" viewBox="0 0 19.955 19.753" fill="none">
  <path d="M 3.355 7.253 C 4.005 7.253 4.622 7.37 5.205 7.603 C 5.789 7.836 6.322 8.178 6.805 8.628 L 16.355 17.753 L 16.955 17.753 C 17.239 17.753 17.476 17.657 17.668 17.465 C 17.859 17.274 17.955 17.036 17.955 16.753 C 17.955 16.62 17.943 16.478 17.918 16.328 C 17.893 16.178 17.805 16.028 17.655 15.878 L 13.08 11.303 L 11.305 5.953 L 9.455 6.403 C 8.822 6.57 8.247 6.453 7.73 6.053 C 7.214 5.653 6.955 5.128 6.955 4.478 L 6.955 2.378 L 6.255 2.028 L 2.405 7.178 C 2.389 7.195 2.38 7.207 2.38 7.215 C 2.38 7.224 2.372 7.236 2.355 7.253 L 3.355 7.253 Z M 3.355 9.253 L 2.205 9.253 C 2.255 9.37 2.318 9.478 2.393 9.578 C 2.468 9.678 2.555 9.77 2.655 9.853 L 10.755 17.228 C 10.939 17.411 11.147 17.545 11.38 17.628 C 11.614 17.711 11.855 17.753 12.105 17.753 L 13.455 17.753 L 5.43 10.078 C 5.147 9.795 4.826 9.586 4.468 9.453 C 4.109 9.32 3.739 9.253 3.355 9.253 Z M 12.105 19.753 C 11.605 19.753 11.13 19.661 10.68 19.478 C 10.23 19.295 9.814 19.036 9.43 18.703 L 1.305 11.328 C 0.539 10.628 0.109 9.77 0.018 8.753 C -0.074 7.736 0.189 6.811 0.805 5.978 L 4.655 0.828 C 4.939 0.445 5.318 0.19 5.793 0.065 C 6.268 -0.06 6.722 -0.005 7.155 0.228 L 7.855 0.578 C 8.205 0.761 8.476 1.011 8.668 1.328 C 8.859 1.645 8.955 1.995 8.955 2.378 L 8.955 4.478 L 10.805 4.003 C 11.305 3.87 11.789 3.932 12.255 4.19 C 12.722 4.449 13.039 4.82 13.205 5.303 L 14.83 10.203 L 19.08 14.453 C 19.414 14.786 19.643 15.145 19.768 15.528 C 19.893 15.911 19.955 16.32 19.955 16.753 C 19.955 17.586 19.664 18.295 19.08 18.878 C 18.497 19.461 17.789 19.753 16.955 19.753 L 12.105 19.753 Z" fill="currentColor" fill-rule="nonzero"/>
</svg>
