<svg xmlns="http://www.w3.org/2000/svg" width="16.667" height="16.667" viewBox="0 0 16.667 16.667" fill="none">
  <path d="M 8.333 16.667 C 7.181 16.667 6.097 16.448 5.083 16.01 C 4.069 15.573 3.188 14.979 2.438 14.229 C 1.687 13.479 1.094 12.597 0.656 11.583 C 0.219 10.569 0 9.486 0 8.333 C 0 7.181 0.219 6.097 0.656 5.083 C 1.094 4.069 1.687 3.188 2.438 2.438 C 3.188 1.687 4.069 1.094 5.083 0.656 C 6.097 0.219 7.181 0 8.333 0 C 9.486 0 10.569 0.219 11.583 0.656 C 12.597 1.094 13.479 1.687 14.229 2.438 C 14.979 3.188 15.573 4.069 16.01 5.083 C 16.448 6.097 16.667 7.181 16.667 8.333 C 16.667 9.486 16.448 10.569 16.01 11.583 C 15.573 12.597 14.979 13.479 14.229 14.229 C 13.479 14.979 12.597 15.573 11.583 16.01 C 10.569 16.448 9.486 16.667 8.333 16.667 Z M 5.917 14.542 L 6.917 12.25 C 6.333 12.042 5.83 11.719 5.406 11.281 C 4.983 10.844 4.653 10.333 4.417 9.75 L 2.125 10.708 C 2.444 11.597 2.938 12.375 3.604 13.042 C 4.271 13.708 5.042 14.208 5.917 14.542 Z M 4.417 6.917 C 4.653 6.333 4.983 5.823 5.406 5.385 C 5.83 4.948 6.333 4.625 6.917 4.417 L 5.958 2.125 C 5.069 2.458 4.292 2.958 3.625 3.625 C 2.958 4.292 2.458 5.069 2.125 5.958 L 4.417 6.917 Z M 8.333 10.833 C 9.028 10.833 9.618 10.59 10.104 10.104 C 10.59 9.618 10.833 9.028 10.833 8.333 C 10.833 7.639 10.59 7.049 10.104 6.563 C 9.618 6.076 9.028 5.833 8.333 5.833 C 7.639 5.833 7.049 6.076 6.563 6.563 C 6.076 7.049 5.833 7.639 5.833 8.333 C 5.833 9.028 6.076 9.618 6.563 10.104 C 7.049 10.59 7.639 10.833 8.333 10.833 Z M 10.75 14.542 C 11.625 14.208 12.392 13.712 13.052 13.052 C 13.712 12.392 14.208 11.625 14.542 10.75 L 12.25 9.75 C 12.042 10.333 11.722 10.837 11.292 11.26 C 10.861 11.684 10.361 12.014 9.792 12.25 L 10.75 14.542 Z M 12.25 6.875 L 14.542 5.917 C 14.208 5.042 13.712 4.274 13.052 3.615 C 12.392 2.955 11.625 2.458 10.75 2.125 L 9.792 4.458 C 10.361 4.667 10.854 4.983 11.271 5.406 C 11.688 5.83 12.014 6.319 12.25 6.875 Z" fill="currentColor" fill-rule="nonzero"/>
</svg>
