<svg xmlns="http://www.w3.org/2000/svg" width="18.333" height="10" viewBox="0 0 18.333 10" fill="none">
  <path d="M 1.667 10 C 1.208 10 0.816 9.837 0.49 9.51 C 0.163 9.184 0 8.792 0 8.333 C 0 7.875 0.163 7.483 0.49 7.156 C 0.816 6.83 1.208 6.667 1.667 6.667 L 1.885 6.667 C 1.948 6.667 2.014 6.681 2.083 6.708 L 5.875 2.917 C 5.847 2.847 5.833 2.781 5.833 2.719 L 5.833 2.5 C 5.833 2.042 5.997 1.649 6.323 1.323 C 6.649 0.997 7.042 0.833 7.5 0.833 C 7.958 0.833 8.351 0.997 8.677 1.323 C 9.003 1.649 9.167 2.042 9.167 2.5 C 9.167 2.528 9.153 2.667 9.125 2.917 L 11.25 5.042 C 11.319 5.014 11.385 5 11.448 5 L 11.885 5 C 11.948 5 12.014 5.014 12.083 5.042 L 15.042 2.083 C 15.014 2.014 15 1.948 15 1.885 L 15 1.667 C 15 1.208 15.163 0.816 15.49 0.49 C 15.816 0.163 16.208 0 16.667 0 C 17.125 0 17.517 0.163 17.844 0.49 C 18.17 0.816 18.333 1.208 18.333 1.667 C 18.333 2.125 18.17 2.517 17.844 2.844 C 17.517 3.17 17.125 3.333 16.667 3.333 L 16.448 3.333 C 16.385 3.333 16.319 3.319 16.25 3.292 L 13.292 6.25 C 13.319 6.319 13.333 6.385 13.333 6.448 L 13.333 6.667 C 13.333 7.125 13.17 7.517 12.844 7.844 C 12.517 8.17 12.125 8.333 11.667 8.333 C 11.208 8.333 10.816 8.17 10.49 7.844 C 10.163 7.517 10 7.125 10 6.667 L 10 6.448 C 10 6.385 10.014 6.319 10.042 6.25 L 7.917 4.125 C 7.847 4.153 7.781 4.167 7.719 4.167 L 7.5 4.167 C 7.472 4.167 7.333 4.153 7.083 4.125 L 3.292 7.917 C 3.319 7.986 3.333 8.052 3.333 8.115 L 3.333 8.333 C 3.333 8.792 3.17 9.184 2.844 9.51 C 2.517 9.837 2.125 10 1.667 10 Z" fill="currentColor" fill-rule="nonzero"/>
</svg>
